# xmcd CD database file
#
# Track frame offsets:
#	150
#	29543
#	41430
#	55665
#	89958
#	105385
#	130612
#	149641
#	176988
#	192169
#
# Disc length: 2760 seconds
#
# Revision: 1
# Processed by: cddbd v1.5.2PL0 Copyright (c) Steve Scherf et al.
# Submitted via: CDex 1.51
#
DISCID=8f0ac60a
DTITLE=Memphis Slim and Buddy Guy - Southside Reunion
DYEAR=2004
DGENRE=Blues
TTITLE0=When Buddy Comes To Town
TTITLE1=How Long Blues
TTITLE2=Good Time Charlie
TTITLE3=You Call Me At Last
TTITLE4=You're The One
TTITLE5=No
TTITLE6=Help Me Some
TTITLE7=Rolling And Tumbling
TTITLE8=Jamming At The Castle
TTITLE9=You're The One (Alternative Version)
EXTD=YEAR: 2004
EXTT0=
EXTT1=
EXTT2=
EXTT3=
EXTT4=
EXTT5=
EXTT6=
EXTT7=
EXTT8=
EXTT9=
PLAYORDER=
